Units are S.I. units (second, meters, Newtons, ...)
Angles are in degrees.
name squat
datarows 77
datacolumns 15
range 0.000000 1.225806
endheader
time exo_pelvis_tx exo_pelvis_ty exo_pelvis_tz exo_pelvis_tilt exo_pelvis_list exo_pelvis_rotation exo_hip_r exo_hip_l exo_knee_r exo_knee_l r_ankle_coupling l_ankle_coupling r_foot l_foot
0.000000	-0.345526	0.945373	-0.000002	0.000000	0.000000	0.000000	-4.991319	-4.992626	2.132662	2.135478	2.858654	2.857152	0.000111	-0.000097
0.016129	-0.345526	0.945373	-0.000002	0.000000	0.000000	0.000000	-3.550209	-4.992626	0.427895	2.135478	3.090031	2.857152	0.000276	-0.000263
0.032258	-0.345526	0.945373	-0.000002	0.000000	0.000000	0.000000	-2.109100	-4.992626	-1.276872	2.135478	3.321408	2.857152	0.000441	-0.000428
0.048387	-0.345526	0.945373	-0.000002	0.000000	0.000000	0.000000	-0.667990	-4.992626	-2.981639	2.135478	3.552785	2.857152	0.000606	-0.000593
0.064516	-0.345526	0.945373	-0.000002	0.000000	0.000000	0.000000	0.773120	-4.992626	-4.686405	2.135478	3.784162	2.857152	0.000771	-0.000758
0.080645	-0.345526	0.945373	-0.000002	0.000000	0.000000	0.000000	2.214229	-4.992626	-6.391172	2.135478	4.015539	2.857152	0.000935	-0.000924
0.096774	-0.345526	0.945373	-0.000002	0.000000	0.000000	0.000000	3.655339	-4.992626	-8.095939	2.135478	4.246916	2.857152	0.001100	-0.001089
0.112903	-0.345526	0.945373	-0.000002	0.000000	0.000000	0.000000	5.096449	-4.992626	-9.800706	2.135478	4.478293	2.857152	0.001265	-0.001254
0.129032	-0.345526	0.945373	-0.000002	0.000000	0.000000	0.000000	6.537558	-4.992626	-11.505473	2.135478	4.709670	2.857152	0.001430	-0.001419
0.145161	-0.345526	0.945373	-0.000002	0.000000	0.000000	0.000000	7.978668	-4.992626	-13.210240	2.135478	4.941047	2.857152	0.001595	-0.001585
0.161290	-0.345526	0.945373	-0.000002	0.000000	0.000000	0.000000	9.419777	-4.992626	-14.915006	2.135478	5.172424	2.857152	0.001760	-0.001750
0.177419	-0.345526	0.945373	-0.000002	0.000000	0.000000	0.000000	10.860887	-4.992626	-16.619773	2.135478	5.403801	2.857152	0.001924	-0.001915
0.193548	-0.345526	0.945373	-0.000002	0.000000	0.000000	0.000000	12.301997	-4.992626	-18.324540	2.135478	5.635178	2.857152	0.002089	-0.002080
0.209677	-0.345526	0.945373	-0.000002	0.000000	0.000000	0.000000	13.743106	-4.992626	-20.029307	2.135478	5.866555	2.857152	0.002254	-0.002246
0.225806	-0.345526	0.945373	-0.000002	0.000000	0.000000	0.000000	15.184216	-4.992626	-21.734074	2.135478	6.097932	2.857152	0.002419	-0.002411
0.241935	-0.345526	0.945373	-0.000002	0.000000	0.000000	0.000000	16.625326	-4.992626	-23.438841	2.135478	6.329309	2.857152	0.002584	-0.002576
0.258065	-0.345526	0.945373	-0.000002	0.000000	0.000000	0.000000	18.066435	-4.992626	-25.143607	2.135478	6.560685	2.857152	0.002749	-0.002741
0.274194	-0.345526	0.945373	-0.000002	0.000000	0.000000	0.000000	19.507545	-4.992626	-26.848374	2.135478	6.792062	2.857152	0.002913	-0.002907
0.290323	-0.345526	0.945373	-0.000002	0.000000	0.000000	0.000000	20.948655	-4.992626	-28.553141	2.135478	7.023439	2.857152	0.003078	-0.003072
0.306452	-0.345526	0.945373	-0.000002	0.000000	0.000000	0.000000	22.389764	-4.992626	-30.257908	2.135478	7.254816	2.857152	0.003243	-0.003237
0.322581	-0.345526	0.945373	-0.000002	0.000000	0.000000	0.000000	23.830874	-4.992626	-31.962675	2.135478	7.486193	2.857152	0.003408	-0.003402
0.338710	-0.345526	0.945373	-0.000002	0.000000	0.000000	0.000000	25.271984	-4.992626	-33.667442	2.135478	7.717570	2.857152	0.003573	-0.003567
0.354839	-0.345526	0.945373	-0.000002	0.000000	0.000000	0.000000	26.713093	-4.992626	-35.372208	2.135478	7.948947	2.857152	0.003737	-0.003733
0.370968	-0.345526	0.945373	-0.000002	0.000000	0.000000	0.000000	28.154203	-4.992626	-37.076975	2.135478	8.180324	2.857152	0.003902	-0.003898
0.387097	-0.345526	0.945373	-0.000002	0.000000	0.000000	0.000000	29.595312	-4.992626	-38.781742	2.135478	8.411701	2.857152	0.004067	-0.004063
0.403226	-0.345526	0.945373	-0.000002	0.000000	0.000000	0.000000	31.036422	-4.992626	-40.486509	2.135478	8.643078	2.857152	0.004232	-0.004228
0.419355	-0.345526	0.945373	-0.000002	0.000000	0.000000	0.000000	32.477532	-4.992626	-42.191276	2.135478	8.874455	2.857152	0.004397	-0.004394
0.435484	-0.345526	0.945373	-0.000002	0.000000	0.000000	0.000000	33.918641	-4.992626	-43.896043	2.135478	9.105832	2.857152	0.004562	-0.004559
0.451613	-0.345526	0.945373	-0.000002	0.000000	0.000000	0.000000	35.359751	-4.992626	-45.600809	2.135478	9.337209	2.857152	0.004726	-0.004724
0.467742	-0.345526	0.945373	-0.000002	0.000000	0.000000	0.000000	36.800861	-4.992626	-47.305576	2.135478	9.568586	2.857152	0.004891	-0.004889
0.483871	-0.345526	0.945373	-0.000002	0.000000	0.000000	0.000000	38.241970	-4.992626	-49.010343	2.135478	9.799963	2.857152	0.005056	-0.005055
0.500000	-0.345526	0.945373	-0.000002	0.000000	0.000000	0.000000	39.683080	-4.992626	-50.715110	2.135478	10.031340	2.857152	0.005221	-0.005220
0.516129	-0.345526	0.945373	-0.000002	0.000000	0.000000	0.000000	38.241970	-4.992626	-49.010343	2.135478	9.799963	2.857152	0.005056	-0.005055
0.532258	-0.345526	0.945373	-0.000002	0.000000	0.000000	0.000000	36.800861	-4.992626	-47.305576	2.135478	9.568586	2.857152	0.004891	-0.004889
0.548387	-0.345526	0.945373	-0.000002	0.000000	0.000000	0.000000	35.359751	-4.992626	-45.600809	2.135478	9.337209	2.857152	0.004726	-0.004724
0.564516	-0.345526	0.945373	-0.000002	0.000000	0.000000	0.000000	33.918641	-4.992626	-43.896043	2.135478	9.105832	2.857152	0.004562	-0.004559
0.580645	-0.345526	0.945373	-0.000002	0.000000	0.000000	0.000000	32.477532	-4.992626	-42.191276	2.135478	8.874455	2.857152	0.004397	-0.004394
0.596774	-0.345526	0.945373	-0.000002	0.000000	0.000000	0.000000	31.036422	-4.992626	-40.486509	2.135478	8.643078	2.857152	0.004232	-0.004228
0.612903	-0.345526	0.945373	-0.000002	0.000000	0.000000	0.000000	29.595312	-4.992626	-38.781742	2.135478	8.411701	2.857152	0.004067	-0.004063
0.629032	-0.345526	0.945373	-0.000002	0.000000	0.000000	0.000000	28.154203	-4.992626	-37.076975	2.135478	8.180324	2.857152	0.003902	-0.003898
0.645161	-0.345526	0.945373	-0.000002	0.000000	0.000000	0.000000	26.713093	-4.992626	-35.372208	2.135478	7.948947	2.857152	0.003737	-0.003733
0.661290	-0.345526	0.945373	-0.000002	0.000000	0.000000	0.000000	25.271984	-4.992626	-33.667442	2.135478	7.717570	2.857152	0.003573	-0.003567
0.677419	-0.345526	0.945373	-0.000002	0.000000	0.000000	0.000000	23.830874	-4.992626	-31.962675	2.135478	7.486193	2.857152	0.003408	-0.003402
0.693548	-0.345526	0.945373	-0.000002	0.000000	0.000000	0.000000	22.389764	-4.992626	-30.257908	2.135478	7.254816	2.857152	0.003243	-0.003237
0.709677	-0.345526	0.945373	-0.000002	0.000000	0.000000	0.000000	20.948655	-4.992626	-28.553141	2.135478	7.023439	2.857152	0.003078	-0.003072
0.725806	-0.345526	0.945373	-0.000002	0.000000	0.000000	0.000000	19.507545	-4.992626	-26.848374	2.135478	6.792062	2.857152	0.002913	-0.002907
0.741935	-0.345526	0.945373	-0.000002	0.000000	0.000000	0.000000	18.066435	-4.992626	-25.143607	2.135478	6.560685	2.857152	0.002749	-0.002741
0.758065	-0.345526	0.945373	-0.000002	0.000000	0.000000	0.000000	16.625326	-4.992626	-23.438841	2.135478	6.329309	2.857152	0.002584	-0.002576
0.774194	-0.345526	0.945373	-0.000002	0.000000	0.000000	0.000000	15.184216	-4.992626	-21.734074	2.135478	6.097932	2.857152	0.002419	-0.002411
0.790323	-0.345526	0.945373	-0.000002	0.000000	0.000000	0.000000	13.743106	-4.992626	-20.029307	2.135478	5.866555	2.857152	0.002254	-0.002246
0.806452	-0.345526	0.945373	-0.000002	0.000000	0.000000	0.000000	12.301997	-4.992626	-18.324540	2.135478	5.635178	2.857152	0.002089	-0.002080
0.822581	-0.345526	0.945373	-0.000002	0.000000	0.000000	0.000000	10.860887	-4.992626	-16.619773	2.135478	5.403801	2.857152	0.001924	-0.001915
0.838710	-0.345526	0.945373	-0.000002	0.000000	0.000000	0.000000	9.419777	-4.992626	-14.915006	2.135478	5.172424	2.857152	0.001760	-0.001750
0.854839	-0.345526	0.945373	-0.000002	0.000000	0.000000	0.000000	7.978668	-4.992626	-13.210240	2.135478	4.941047	2.857152	0.001595	-0.001585
0.870968	-0.345526	0.945373	-0.000002	0.000000	0.000000	0.000000	6.537558	-4.992626	-11.505473	2.135478	4.709670	2.857152	0.001430	-0.001419
0.887097	-0.345526	0.945373	-0.000002	0.000000	0.000000	0.000000	5.096449	-4.992626	-9.800706	2.135478	4.478293	2.857152	0.001265	-0.001254
0.903226	-0.345526	0.945373	-0.000002	0.000000	0.000000	0.000000	3.655339	-4.992626	-8.095939	2.135478	4.246916	2.857152	0.001100	-0.001089
0.919355	-0.345526	0.945373	-0.000002	0.000000	0.000000	0.000000	2.214229	-4.992626	-6.391172	2.135478	4.015539	2.857152	0.000935	-0.000924
0.935484	-0.345526	0.945373	-0.000002	0.000000	0.000000	0.000000	0.773120	-4.992626	-4.686405	2.135478	3.784162	2.857152	0.000771	-0.000758
0.951613	-0.345526	0.945373	-0.000002	0.000000	0.000000	0.000000	-0.667990	-4.992626	-2.981639	2.135478	3.552785	2.857152	0.000606	-0.000593
0.967742	-0.345526	0.945373	-0.000002	0.000000	0.000000	0.000000	-2.109100	-4.992626	-1.276872	2.135478	3.321408	2.857152	0.000441	-0.000428
0.983871	-0.345526	0.945373	-0.000002	0.000000	0.000000	0.000000	-3.550209	-4.992626	0.427895	2.135478	3.090031	2.857152	0.000276	-0.000263
1.000000	-0.345526	0.945373	-0.000002	0.000000	0.000000	0.000000	-4.991319	-4.992626	2.132662	2.135478	2.858654	2.857152	0.000111	-0.000097
1.016129	-0.345526	0.945373	-0.000002	0.000000	0.000000	0.000000	-4.991319	-3.551474	2.132662	0.430620	2.858654	3.088577	0.000111	0.000074
1.032258	-0.345526	0.945373	-0.000002	0.000000	0.000000	0.000000	-4.991319	-2.110322	2.132662	-1.274237	2.858654	3.320003	0.000111	0.000246
1.048387	-0.345526	0.945373	-0.000002	0.000000	0.000000	0.000000	-4.991319	-0.669171	2.132662	-2.979095	2.858654	3.551428	0.000111	0.000417
1.064516	-0.345526	0.945373	-0.000002	0.000000	0.000000	0.000000	-4.991319	0.771981	2.132662	-4.683953	2.858654	3.782854	0.000111	0.000589
1.080645	-0.345526	0.945373	-0.000002	0.000000	0.000000	0.000000	-4.991319	2.213133	2.132662	-6.388810	2.858654	4.014279	0.000111	0.000760
1.096774	-0.345526	0.945373	-0.000002	0.000000	0.000000	0.000000	-4.991319	3.654285	2.132662	-8.093668	2.858654	4.245705	0.000111	0.000932
1.112903	-0.345526	0.945373	-0.000002	0.000000	0.000000	0.000000	-4.991319	5.095437	2.132662	-9.798526	2.858654	4.477130	0.000111	0.001104
1.129032	-0.345526	0.945373	-0.000002	0.000000	0.000000	0.000000	-4.991319	6.536588	2.132662	-11.503383	2.858654	4.708555	0.000111	0.001275
1.145161	-0.345526	0.945373	-0.000002	0.000000	0.000000	0.000000	-4.991319	7.977740	2.132662	-13.208241	2.858654	4.939981	0.000111	0.001447
1.161290	-0.345526	0.945373	-0.000002	0.000000	0.000000	0.000000	-4.991319	9.418892	2.132662	-14.913099	2.858654	5.171406	0.000111	0.001618
1.177419	-0.345526	0.945373	-0.000002	0.000000	0.000000	0.000000	-4.991319	10.860044	2.132662	-16.617956	2.858654	5.402832	0.000111	0.001790
1.193548	-0.345526	0.945373	-0.000002	0.000000	0.000000	0.000000	-4.991319	12.301196	2.132662	-18.322814	2.858654	5.634257	0.000111	0.001961
1.209677	-0.345526	0.945373	-0.000002	0.000000	0.000000	0.000000	-4.991319	13.742347	2.132662	-20.027672	2.858654	5.865682	0.000111	0.002133
1.225806	-0.345526	0.945373	-0.000002	0.000000	0.000000	0.000000	-4.991319	15.183499	2.132662	-21.732529	2.858654	6.097108	0.000111	0.002304
